<svg width="408" height="317" viewBox="0 0 408 317" fill="none" xmlns="http://www.w3.org/2000/svg">
<path d="M104.002 232.544V272H112.066V256.592C112.978 256.592 114.082 256.544 115.186 256.544C120.85 261.152 124.594 269.216 126.466 272.048H135.49C133.666 268.88 127.522 258.416 124.162 255.152C128.674 253.472 132.706 249.824 132.706 244.448C132.706 238.592 128.722 232.64 119.554 232.496L104.002 232.544ZM112.066 249.584V239.504C114.85 239.504 117.538 239.6 119.938 239.936C123.25 240.368 124.402 241.712 124.402 244.592C124.402 247.328 121.57 249.056 118.114 249.344C116.146 249.536 114.082 249.584 112.066 249.584ZM138.498 235.664C138.498 237.296 138.786 238.88 139.17 240.272C140.034 240.704 141.042 240.944 142.146 240.944C143.298 240.944 144.45 240.704 145.41 240.272C145.842 239.312 146.082 238.256 146.082 237.104C146.082 235.952 145.842 234.896 145.41 233.984C144.546 233.552 143.49 233.264 142.434 233.264C140.658 233.264 139.026 234.368 138.498 235.664ZM138.402 272H146.226V244.256H138.402V272ZM158.88 272V258.752C158.88 257.84 158.88 256.976 158.976 256.208C159.216 252.608 161.088 250.784 164.304 250.784C168 250.784 169.728 252.992 169.728 257.648L169.776 272H177.504L177.456 256.448C177.504 248.768 172.512 243.92 164.304 243.968C161.616 243.968 159.408 244.688 157.632 245.84V244.208H150.912V272H158.88ZM188.531 257.792C188.531 253.424 191.315 250.592 195.107 250.592C199.043 250.592 201.107 252.656 201.587 255.344C201.635 255.632 201.635 255.92 201.635 256.16V257.984C201.635 258.656 201.587 259.28 201.491 259.904C200.771 263.072 198.275 265.04 195.107 265.04C191.171 265.04 188.531 262.16 188.531 257.792ZM203.987 246.32C201.539 244.4 198.371 243.68 195.299 243.584H192.947C185.891 244.064 180.467 250.448 180.467 257.792C180.467 265.184 185.843 271.616 192.947 272C193.475 272.048 194.051 272.048 194.579 272.048C197.267 271.952 199.667 271.184 201.539 269.504C201.491 270.368 201.443 271.184 201.251 271.952C200.723 275.6 197.459 276.992 194.723 277.04C191.219 277.136 188.387 275.84 186.515 274.256L182.483 279.296C185.027 283.136 190.067 284.144 194.675 284.144C202.547 284.096 209.267 280.352 209.267 270.896V244.688H204.083C204.083 244.88 204.083 245.696 203.987 246.32ZM212.155 252.128V259.184H229.243V252.128H212.155ZM255.882 271.856L265.482 249.056L265.53 272H273.546V232.496H263.802L253.626 257.408L243.354 232.496H233.658V272H241.674L241.77 249.056L251.322 271.856H255.882ZM284.862 255.152C285.342 252.272 287.406 250.016 290.622 250.016C294.03 250.016 296.334 252.656 296.574 255.152H284.862ZM297.294 263.264C295.902 265.136 293.406 266.144 290.958 265.904C287.838 265.616 285.198 263.456 284.718 260.432H304.206C304.206 250.256 299.406 243.968 290.478 243.968C283.422 243.968 276.75 249.728 276.75 258.224C276.75 267.008 283.902 272.48 291.006 272.48C298.446 272.48 302.142 268.352 303.726 264.704L297.294 263.264Z" fill="white"/>
<circle cx="203" cy="132" r="81" stroke="white" stroke-width="18"/>
<path d="M203.5 60L177.346 46.1803L187.336 23.8197L219.664 23.8197L229.654 46.1803L203.5 60Z" fill="white"/>
<circle cx="203" cy="132" r="81" stroke="white" stroke-width="18"/>
<path d="M203.5 60L177.346 46.1803L187.336 23.8197L219.664 23.8197L229.654 46.1803L203.5 60Z" fill="white"/>
<path d="M401.184 120H347.184" stroke="white" stroke-width="12" stroke-linecap="round" stroke-linejoin="round"/>
<path d="M366.184 231L328 192.816" stroke="white" stroke-width="12" stroke-linecap="round" stroke-linejoin="round"/>
<path d="M328 47.1838L366.184 9" stroke="white" stroke-width="12" stroke-linecap="round" stroke-linejoin="round"/>
<path d="M6 120H60" stroke="white" stroke-width="12" stroke-linecap="round" stroke-linejoin="round"/>
<path d="M41 231L79.1838 192.816" stroke="white" stroke-width="12" stroke-linecap="round" stroke-linejoin="round"/>
<path d="M79.1838 47.1838L41 9" stroke="white" stroke-width="12" stroke-linecap="round" stroke-linejoin="round"/>
</svg>
